<?xml version="1.0" encoding="UTF-8"?>
<svg id="Layer_2" data-name="Layer 2" xmlns="http://www.w3.org/2000/svg" viewBox="0 0 360.8 256.65">
  <defs>
    <style>
      .cls-1 {
        fill: #292929;
      }
    </style>
  </defs>
  <g id="_ëÎÓÈ_1" data-name="ëÎÓÈ 1">
    <path d="M360.8,212.88c0-1.83-1.48-3.31-3.31-3.31h-2.64c-2.48-17.21-6.17-28.26-21.46-32.7-3.8-1.1-7.79-1.49-11.74-1.49-41.64,.03-68.81-2.06-99.62-26.77-1.1-7.76-4.19-13.59-9.42-17.35-25.84-17.34-49.17-38.49-61.04-59.33-3.6-6.32-5.37-13.5-5.37-20.77V15.83c0-9.55-7.77-16.57-17.28-15.76C104,2.18,60.2,14.08,25.98,25.89c-5.24,1.81-8.34,7.14-7.5,12.62C28.28,101.92,3.06,118.33,4.96,211.55h-1.13c-2.11,0-3.82,1.71-3.82,3.82v37.33c0,2.18,1.77,3.95,3.95,3.95H98.64c2.18,0,3.95-1.77,3.95-3.95v-12.88c0-2.75,2.25-4.98,4.99-4.95,26.04,.34,44.36,3.29,68.52,7.34,1.89,.32,3.31,1.96,3.31,3.88v6.96c0,1.99,1.64,3.59,3.62,3.59,89.18-.06,125.56-2.46,173.35-21.04,2.67-1.04,4.43-3.63,4.43-6.49v-16.24ZM143.2,102.06c-4.04,0-7.31-3.27-7.31-7.31s3.27-7.31,7.31-7.31,7.31,3.27,7.31,7.31-3.27,7.31-7.31,7.31Zm25.28,26.02c-4.04,0-7.31-3.27-7.31-7.31s3.27-7.31,7.31-7.31,7.31,3.27,7.31,7.31-3.27,7.31-7.31,7.31Zm26.02,20.82c-4.04,0-7.31-3.27-7.31-7.31s3.27-7.31,7.31-7.31,7.31,3.27,7.31,7.31-3.27,7.31-7.31,7.31Z"/>
  </g>
</svg>