<?xml version="1.0" encoding="UTF-8"?>
<svg id="Layer_2" data-name="Layer 2" xmlns="http://www.w3.org/2000/svg" viewBox="0 0 442.4 448.57">
  <defs>
    <style>
      .cls-1 {
        fill: #292929;
      }
    </style>
  </defs>
  <g id="_ëÎÓÈ_1" data-name="ëÎÓÈ 1">
    <g>
      <rect  x="132.79" y="426.2" width="84.15" height="22.37"/>
      <rect  x="225.46" y="426.2" width="84.15" height="22.37"/>
      <path  d="M441.02,352.35l-88.36-170.87c-8.66-16.74-23.59-29.3-41.45-34.99-2.54-.81-5.14-1.33-7.76-1.78-3.41-.58-8.79-1.44-15.57-2.38-4.39-.6-7.68-4.35-7.68-8.79V60.47C280.19,28.45,255.29,1.18,223.29,.04c-33.6-1.19-61.21,25.69-61.21,59.02v74.52c0,4.43-3.29,8.18-7.68,8.79-6.72,.93-12.05,1.78-15.44,2.36-2.62,.44-5.22,.97-7.76,1.78-17.86,5.69-32.8,18.25-41.46,34.99L1.38,352.35c-3.11,6.01-.8,13.4,5.17,16.57l30.79,16.4c6.03,3.21,13.53,.91,16.72-5.13L121.79,252.01v153.07c0,7.65,6.2,13.84,13.84,13.84h81.31V137.41h-.02c-.25-9.59-8.08-17.28-17.73-17.28h-11.71c-3.47,0-6.28-2.81-6.28-6.28v-40.92h.04c-.03-.59-.09-1.17-.09-1.76,0-22.08,17.9-39.98,39.98-39.98s39.98,17.9,39.98,39.98c0,.59-.06,1.17-.09,1.76h.09v40.92c0,3.47-2.81,6.28-6.28,6.28h-11.62c-9.64,0-17.48,7.7-17.73,17.28h-.02V418.92h81.31c7.65,0,13.84-6.2,13.84-13.84V252.01l67.72,128.19c3.19,6.04,10.69,8.35,16.72,5.13l30.79-16.4c5.97-3.18,8.27-10.57,5.17-16.57Z"/>
    </g>
  </g>
</svg>