<?xml version="1.0" encoding="UTF-8"?>
<svg id="Layer_2" data-name="Layer 2" xmlns="http://www.w3.org/2000/svg" viewBox="0 0 358.34 403.19">
  <defs>
    <style>
      .cls-1 {
        fill: #292929;
      }

      .cls-2 {
        fill: none;
        stroke: #fff;
        stroke-linecap: round;
        stroke-miterlimit: 10;
        stroke-width: 7.58px;
      }
    </style>
  </defs>
  <g id="_ëÎÓÈ_1" data-name="ëÎÓÈ 1">
    <g>
      <path  d="M319.04,371.84c-1.81,0-3.58-.29-5.24-.85v11.58c0,2.46,1.99,4.45,4.45,4.45h27.01c2.46,0,4.45-1.99,4.45-4.45v-11.42c-1.51,.45-3.09,.69-4.68,.69h-25.99Z"/>
      <path  d="M303.96,89.06c-10.66,33.91-16.51,69.26-17.08,103.78,15.32,31.15,19.27,93.03,19.27,154.18,.02,4.8,1.97,8.87,5.53,12.33,1.97,1.91,4.61,2.96,7.35,2.96h25.99c2.27,0,4.48-.71,6.3-2.07,4.19-3.15,6.49-7.6,6.6-13.56,2.74-116.47-7.06-213.62-53.96-257.61Z"/>
      <path  d="M39.3,371.84c1.81,0,3.58-.29,5.24-.85v11.58c0,2.46-1.99,4.45-4.45,4.45H13.09c-2.46,0-4.45-1.99-4.45-4.45v-11.42c1.51,.45,3.09,.69,4.68,.69h25.99Z"/>
      <path  d="M54.38,89.06c10.66,33.91,16.51,69.26,17.08,103.78-15.32,31.15-19.27,93.03-19.27,154.18-.02,4.8-1.97,8.87-5.53,12.33-1.97,1.91-4.61,2.96-7.35,2.96H13.31c-2.27,0-4.48-.71-6.3-2.07-4.19-3.15-6.49-7.6-6.6-13.56C-2.32,230.2,7.48,133.04,54.38,89.06Z"/>
      <path  d="M263.92,376.33c-29.9,5.61-62.59,6.78-84.75,6.78s-54.85-1.18-84.75-6.78c-.92-.17-1.83-.4-2.72-.65v21.8c0,3.16,2.56,5.72,5.72,5.72h163.49c3.16,0,5.72-2.56,5.72-5.72v-21.8c-.89,.26-1.8,.48-2.72,.65Z"/>
      <path  d="M221.15,266.56h-83.97c-15.91,31.87-36.48,58.88-58.4,76.73,.08,1.84,.21,.93,.42,3.12,.85,9.25,7.77,16.79,16.91,18.5,25.75,4.83,55.69,6.62,83.07,6.62s57.32-1.8,83.07-6.62c9.13-1.71,16.06-9.25,16.91-18.5,.2-2.19,.33-1.28,.42-3.12-21.92-17.85-42.5-44.86-58.4-76.73Z"/>
      <path  d="M276.05,179.85s.03,.04,.04,.06c1.4-32.99,7.48-66.55,17.84-98.78-9.45-7.75-20.29-13.51-32.68-17.04h0s-3.42,1.17-3.42,1.17c-18.08,6.15-47.49,13.26-75.8,14.74-.95,.05-1.91,.07-2.85,.07s-1.91-.03-2.85-.07c-28.32-1.49-57.72-8.59-75.8-14.74l-3.42-1.17h0c-12.4,3.53-23.24,9.29-32.68,17.03,10.37,32.23,16.45,65.79,17.84,98.78,.01-.02,.03-.04,.04-.06,2.09,42.32-3.48,94.75-3.64,149.22,20.34-17.62,39.36-43.35,54.17-73.48l.79-1.61h91.12l.79,1.61c14.81,30.13,33.83,55.86,54.17,73.48-.16-54.47-5.73-106.9-3.64-149.22Z"/>
      <path  d="M179.17,50.56c21.14-15.31,40.3-27.75,63.13-38.13C230.02,5.02,206.36,0,179.17,0s-50.85,5.02-63.13,12.42c22.83,10.38,42,22.82,63.13,38.13Z"/>
      <path  d="M252.69,23.89c-1.48-2.38-4.51-3.27-7.06-2.12-24.76,11.14-45.35,25.02-66.46,40.44-21.11-15.43-41.7-29.3-66.46-40.44-2.55-1.15-5.58-.26-7.06,2.12-4.24,6.8-4.58,19.86-3.29,30.62,15.31,5.21,44.78,12.9,74.25,14.44,1.7,.09,3.4,.09,5.1,0,29.47-1.55,58.94-9.23,74.25-14.44,1.29-10.76,.95-23.82-3.29-30.62Z"/>
      <line class="cls-2" x1="197.9" y1="61.62" x2="197.9" y2="160.66"/>
      <line class="cls-2" x1="160.44" y1="61.62" x2="160.44" y2="160.66"/>
    </g>
  </g>
</svg>