<?xml version="1.0" encoding="UTF-8"?>
<svg id="Layer_2" data-name="Layer 2" xmlns="http://www.w3.org/2000/svg" viewBox="0 0 475.55 383.43">
  <defs>
    <style>
      .cls-1 {
        fill: #292929;
      }
    </style>
  </defs>
  <g id="_ëÎÓÈ_1" data-name="ëÎÓÈ 1">
    <g>
      <g>
        <path d="M237.77,50.56c21.14-15.31,40.3-27.75,63.13-38.13-12.28-7.41-35.95-12.42-63.13-12.42s-50.85,5.02-63.13,12.42c22.83,10.38,42,22.82,63.13,38.13Z"/>
        <g>
          <path d="M234.23,59.65c-19.88-14.4-39.54-27.37-62.91-37.88-2.55-1.15-5.58-.26-7.06,2.12-4.24,6.8-4.58,19.86-3.29,30.62,15.14,5.15,44.12,12.72,73.26,14.38v-9.23Z"/>
          <path d="M311.29,23.89c-1.48-2.38-4.51-3.27-7.06-2.12-23.37,10.52-43.03,23.49-62.91,37.88v9.23c29.14-1.66,58.12-9.23,73.26-14.38,1.29-10.76,.95-23.82-3.29-30.62Z"/>
        </g>
      </g>
      <path d="M372.66,93.62c-7.34-14.19-20.36-24.6-35.82-28.64l-13.97-3.65-5.35,1.82c-17.99,6.13-47.08,13.17-75.32,14.83V383.43h100.43V175.29l77.54,146.76,55.37-29.48-102.89-198.95Z"/>
      <path d="M102.89,93.62c7.34-14.19,20.36-24.6,35.82-28.64l13.97-3.65,5.35,1.82c17.99,6.13,47.08,13.17,75.32,14.83V383.43h-100.43V175.29L55.37,322.05,0,292.57,102.89,93.62Z"/>
    </g>
  </g>
</svg>