<?xml version="1.0" encoding="UTF-8"?>
<svg id="Layer_2" data-name="Layer 2" xmlns="http://www.w3.org/2000/svg" viewBox="0 0 189.3 399.95">
  <defs>
    <style>
      .cls-1 {
        fill: #292929;
      }
    </style>
  </defs>
  <g id="_ëÎÓÈ_1" data-name="ëÎÓÈ 1">
    <path d="M167.77,2.28c-.23-1.53-1.71-2.55-3.22-2.22-9.17,1.98-39.53,7.99-69.9,7.99S33.92,2.04,24.75,.06c-1.51-.33-2.99,.69-3.22,2.22C1.88,131.07-3.91,263.62,2.49,399.47c.01,.27,.23,.48,.5,.48H55.29c.26,0,.47-.19,.5-.45,10.12-96.78,22.91-210.87,38.86-289.79,15.94,78.91,28.73,193.01,38.86,289.79,.03,.26,.24,.45,.5,.45h52.3c.27,0,.49-.21,.5-.48,6.39-135.85,.61-268.4-19.04-397.19Z"/>
  </g>
</svg>