<?xml version="1.0" encoding="UTF-8"?>
<svg id="Layer_2" data-name="Layer 2" xmlns="http://www.w3.org/2000/svg" viewBox="0 0 153.81 76.34">
  <defs>
    <style>
      .cls-1 {
        fill: #333;
      }
    </style>
  </defs>
  <g id="_ÎÓÈ_2" data-name="—ÎÓÈ_2">
    <g>
      <path d="M57.64,58.96c-26.44,0-49.45-1.87-57.19-2.57-.14,2.24-.24,4.3-.31,6.05,14.36,.94,75.5,4.57,107.52,.27,1.36-.2,2.63,.78,2.81,2.14,.18,1.37-.78,2.63-2.14,2.81-11.61,1.56-26.96,2.1-42.53,2.1-27.78,0-56.29-1.7-65.79-2.32,0,.44,0,.72,0,.79-.05,2.23,1.59,6.54,8.13,6.86,5.79,.29,22.2,.87,22.39,.88,.15,0,15.69,.36,33.83,.36,19.48,0,34.52-.4,44.69-1.18,22.5-1.73,42.21-10.87,43.92-14.96,1.11-2.66,1.8-11.14-2.27-16.46-20.37,12.21-59.47,15.23-93.04,15.23Z"/>
      <path d="M146.85,40.18c-2.58-1.88-4.24-2.09-6.41-2.21-.38-.02-.79-.04-1.24-.09-.76-.07-1.52-.11-2.3-.11-1.39,0-2.65,.11-3.99,.23-1.41,.12-2.87,.25-4.6,.25-1.56,0-3.16-.1-4.87-.32-1.14-.14-2.51-.41-4.06-.78l-2.26,7.17c.04,.2,.06,.41,.06,.62-.03,1.58-1.34,2.83-2.92,2.79s-2.83-1.34-2.79-2.92c.02-.79,.35-1.5,.89-2.01l2.21-7c-1.36-.42-2.8-.91-4.31-1.45l-3.06,7.94c.02,.14,.04,.28,.03,.43-.03,1.58-1.34,2.83-2.92,2.79-1.58-.03-2.83-1.34-2.79-2.92,.02-.85,.41-1.59,1.01-2.1l3.05-7.92c-1.63-.65-3.32-1.36-5.05-2.13l-4.25,8.84c0,.07,.02,.13,.02,.2-.03,1.58-1.34,2.83-2.92,2.79-1.58-.03-2.83-1.34-2.79-2.92,.02-.93,.49-1.74,1.19-2.24l4.21-8.77c-1.35-.65-2.73-1.33-4.12-2.05l-6.52,9.22c-.17,1.44-1.4,2.55-2.88,2.51-1.58-.03-2.83-1.34-2.79-2.92,.02-1.1,.67-2.03,1.59-2.49l6.14-8.7c-.14-.08-.28-.15-.42-.23-1.35-.75-3.03-1.7-4.92-2.79l-8.66,10.54c-.26,1.35-1.44,2.35-2.86,2.32-1.58-.03-2.83-1.34-2.79-2.92,.03-1.18,.77-2.18,1.8-2.59l8.13-9.91c-7.42-4.35-16.69-9.9-24.14-14.36l-4.37-2.61c-1.6-.96-2.87-1.4-4.02-1.4s-2.12,.43-2.83,1.22c-1.63,1.8-1.34,4.69-.9,9.06,.67,6.73,1.59,15.95-5.01,20.79-.93,.68-2.04,1.01-3.4,1.01-4.38,0-10.09-3.32-14.67-5.99-3.76-2.19-6.48-3.78-8.65-3.78-1.73,0-3.1,1.01-3.59,2.63-.23,.78-.47,1.54-.71,2.32-.91,2.94-1.95,6.27-2.95,11.64-.74,3.99-1.26,8.37-1.62,12.49,16.51,1.45,110.46,8.68,146.02-11.22Zm-98.74,7.78c1.73-2.57,2.88-6.77,3.99-10.83,1.25-4.56,2.54-9.24,4.82-12.76,.17-1.45,1.4-2.56,2.88-2.53,1.58,.03,2.83,1.34,2.79,2.92-.02,1.09-.67,2.02-1.58,2.48-1.81,2.86-2.97,7.1-4.1,11.21-1.22,4.45-2.47,9.06-4.67,12.3-.48,.72-1.27,1.1-2.07,1.1-.48,0-.97-.14-1.4-.43-1.14-.77-1.45-2.33-.67-3.47Z"/>
    </g>
  </g>
</svg>