<?xml version="1.0" encoding="UTF-8"?>
<svg id="Layer_2" data-name="Layer 2" xmlns="http://www.w3.org/2000/svg" viewBox="0 0 59.39 51.06">
  <defs>
    <style>
      .cls-1 {
        fill: #25333f;
      }
    </style>
  </defs>
  <g id="Layer_1-2" data-name="Layer 1">
    <g>
      <path d="M.71,47.5l6.68,.98c.48,.07,.92-.29,.95-.77,.32-5.66,1.07-11.82,2.51-18.35,.38-1.7,.78-3.36,1.21-4.96,0-.02,0-.04,0-.07L9.82,3.34c-.02-.19-.27-.23-.35-.06-2.56,5.63-5.29,12.93-7.15,21.69C.54,33.29,.02,40.7,0,46.68c0,.41,.3,.76,.71,.82Z"/>
      <path d="M.55,50.11c1.99,.29,4.8,.67,6.68,.94,.39,.06,.74-.24,.74-.64v-.87c0-.32-.23-.59-.55-.64-1.99-.29-4.8-.67-6.68-.94C.35,47.91,0,48.21,0,48.6v.87c0,.32,.23,.59,.55,.64Z"/>
      <path d="M59.39,48.6c0-.39-.35-.69-.74-.64-1.88,.27-4.7,.65-6.68,.94-.32,.05-.55,.32-.55,.64v.87c0,.39,.35,.69,.74,.64,1.88-.27,4.7-.65,6.68-.94,.32-.05,.55-.32,.55-.64v-.87Z"/>
      <path d="M47.34,24.4c.43,1.61,.83,3.26,1.21,4.96,1.44,6.53,2.2,12.69,2.51,18.35,.03,.49,.47,.84,.95,.77l6.68-.98c.41-.06,.71-.41,.71-.82-.02-5.98-.54-13.39-2.32-21.71-1.87-8.76-4.59-16.06-7.15-21.69-.08-.17-.33-.13-.35,.06l-2.24,20.99s0,.04,0,.07Z"/>
      <path d="M18.96,46.06h21.47c2.22,0,4.09-1.68,4.33-3.89L48.37,3.24c.07-.63-.36-1.21-.98-1.33l-9.67-1.91c-.42,4.06-15.62,4.06-16.04,0L12.01,1.91c-.62,.12-1.05,.7-.98,1.33l3.61,38.93c.24,2.21,2.1,3.89,4.33,3.89Z"/>
    </g>
  </g>
</svg>