<?xml version="1.0" encoding="UTF-8"?>
<svg id="Layer_2" data-name="Layer 2" xmlns="http://www.w3.org/2000/svg" viewBox="0 0 231.88 339.53" >
  <defs>
    <style>
      .cls-1 {
        fill: #292929;
      }
      
    </style>
  </defs>
  <g id="_ëÎÓÈ_1" data-name="ëÎÓÈ 1">
    <path d="M214.73,6.09L193.3,0c-9.56,30.21-21.18,55.72-40.77,73.38-10.36,9.34-23.48,14.01-36.59,14.01s-26.23-4.67-36.59-14.01C59.76,55.72,48.14,30.21,38.58,0L17.15,6.09C39.46,53.26,33.77,96.07,0,134.52c8.96,72.34,9.3,113.38,9.3,189.5,0,0,31.58,15.51,106.64,15.51s106.64-15.51,106.64-15.51c0-76.12,.34-117.16,9.3-189.5-33.77-38.45-39.47-81.26-17.15-128.43Z"/>
  </g>
</svg>